<mxfile host="Electron" agent="Mozilla/5.0 (Macintosh; Intel Mac OS X 10_15_7) AppleWebKit/537.36 (KHTML, like Gecko) draw.io/27.0.5 Chrome/134.0.6998.205 Electron/35.3.0 Safari/537.36" version="27.0.5">
  <diagram name="SAP_Build_Work_Zone_L2" id="m9qa-WHbfBLWxVzqkJny">
    <mxGraphModel dx="4404" dy="2820" grid="1" gridSize="10" guides="1" tooltips="1" connect="0" arrows="0" fold="1" page="1" pageScale="1" pageWidth="1169" pageHeight="827" background="none" math="0" shadow="0">
      <root>
        <mxCell id="WXxtYBOuJOK_NInGcJ7v-0" />
        <mxCell id="WXxtYBOuJOK_NInGcJ7v-1" parent="WXxtYBOuJOK_NInGcJ7v-0" />
        <mxCell id="WXxtYBOuJOK_NInGcJ7v-2" value="&lt;meta charset=&quot;utf-8&quot;&gt;&lt;span style=&quot;color: rgb(0, 0, 0); font-family: Helvetica; font-size: 12px; font-style: normal; font-variant-ligatures: normal; font-variant-caps: normal; font-weight: 700; letter-spacing: normal; orphans: 2; text-align: left; text-indent: 0px; text-transform: none; widows: 2; word-spacing: 0px; -webkit-text-stroke-width: 0px; white-space: nowrap; background-color: rgb(251, 251, 251); text-decoration-thickness: initial; text-decoration-style: initial; text-decoration-color: initial; display: inline !important; float: none;&quot;&gt;BTP Service&lt;/span&gt;" style="rounded=1;whiteSpace=wrap;html=1;strokeColor=#0070F2;fillColor=#EBF8FF;arcSize=16;absoluteArcSize=1;imageWidth=64;imageHeight=64;strokeWidth=1.5;" parent="WXxtYBOuJOK_NInGcJ7v-1" vertex="1">
          <mxGeometry x="-2217.5" y="-1588" width="830.5" height="614" as="geometry" />
        </mxCell>
        <mxCell id="WXxtYBOuJOK_NInGcJ7v-3" value="" style="rounded=1;whiteSpace=wrap;html=1;strokeColor=#0070F2;strokeWidth=1.5;arcSize=16;fillColor=#FFFFFF;perimeterSpacing=0;absoluteArcSize=1;" parent="WXxtYBOuJOK_NInGcJ7v-1" vertex="1">
          <mxGeometry x="-2198" y="-1540" width="800" height="426" as="geometry" />
        </mxCell>
        <mxCell id="WXxtYBOuJOK_NInGcJ7v-4" value="" style="rounded=1;whiteSpace=wrap;html=1;strokeColor=#0070F2;strokeWidth=1.5;arcSize=16;fillColor=#ecf8ff;perimeterSpacing=0;absoluteArcSize=1;" parent="WXxtYBOuJOK_NInGcJ7v-1" vertex="1">
          <mxGeometry x="-2183" y="-1475.64" width="342.5" height="318.64" as="geometry" />
        </mxCell>
        <mxCell id="WXxtYBOuJOK_NInGcJ7v-5" value="&lt;meta charset=&quot;utf-8&quot;&gt;&lt;span data-metadata=&quot;&lt;!--(figmeta)eyJmaWxlS2V5IjoiN2h3ZTRkMkZNdlR2dHlHVzZIbENmNiIsInBhc3RlSUQiOjcyOTE3OTY2MiwiZGF0YVR5cGUiOiJzY2VuZSJ9Cg==(/figmeta)--&gt;&quot;&gt;&lt;/span&gt;&lt;span data-buffer=&quot;&lt;!--(figma)ZmlnLWtpd2kwAAAAPUYAALW9e5xkSVXgH3Ezsx5d/Zj3i5nhDYqI82J4iEg+blVld74mb2b1zKiTZFXe6ko6K7PMm1XTxbouIiIigiIiIiKyiDi6iIiIiDgiIiIiIiIiIiKyLMuyLsu6LMu6v++JiPvI6h7Wf37z+UxHxIkTJ06cOHHixInIWw969TCK+ufCzuFeqNQ1p5vVRi/oFNsdxX+NZsXvldeLjTU/oKi7gd/OlD2D7Tcq5HNBda1RrJHLB517aj6Zgsn0Al9oLRhcQ7kXnKm2em2/1ixKy8VGs1NdvacXrDe7tUqv21prFyvSfslle5VmQ8rLcbntr7b9YB3QsaDsN/we4NZ6766u374H4EoW2PZbNQEer1RXV0lPlGtVv9Hpldr0Xi4GwtvJDG+nm9024/CFs1NBp+0X67aG8mWubEd8ebXR8dvFcqe6wSBrVRizoqHuirZfbjYafpnBZpiJObzy0tUxr1cZfuilV22U234dfos1al0bMK4uXhhGTMDd5JU00cWtLSYSEBxWes2GIaRM4Wy72hGmdGMyCFs7/SgEDbrFjhklSPXmhsnqs8PxYDg+194fCU6j2bjXbzepUM2KqRcKVlMeT6UPSFWa5a5wSFaXi42NYkDOW2s3uy0yudV2sS54+VKzWfOLjV6zhdA61WYDYGGD4TTb5BZExqSLtaohu+TXatVWINllBt5BrkanjrX9tW6t2O61mrV71gyRFbpqVPyKCCjBO97x7xaWTjAxZQGcDO6pl5qin6eqDTprGCgzWi2fEVFdHqwXW37vbLWz3nNtr3DyNgxeWZa1UKo1y2coXXW2Wlkzen01tOoy0mvqfqVaJHPtenVtvcb/Un1dAAE72Otdtoew27WidHrD2WKwXu116JnSwzaK7WqxZPi/seMyN5lMr4w8KN0co7hV9XCGZ9bKI4pBUA2Y0B6Um12pe+TF+unXjDJR+aiEkHDTphLgo+vNStf0+hiLv0YFpcfaUrt5lsLjgp3+Xnh2ONvphBdmVhluDu7qFts+tQo+3bxpxFFvmqXidehMZobVTTGXFCvNsyKa/KWmsNAqtou1GmaC1VHvtZ1EF+bBNX9VoIt+Y61XKSKsoul8Scost64UlqWwWjVUj5l8s1bxZVZXOiw8/96mGebxVtuv+KsoYKXXajfLfiCqfIIZ8mtSfzJW9V5QdTyeSkD1bq1TbRngZfVio8uCrTZaZiIuX/fvLlpdvaK87m+0TfbKFs0c+Komw7ZZ0Sfh7JpWrSvdX1tsI/d4mNfZUiyL64NuvQ4vvdPdBvNsCNxg1PVhQcv3y+u9UrfEJAO40WgDlg1r1mwXjZW6qTQKx4M6a1rYQYN6nXVmYk0sK7a/XTf2XFeK7TO+kPbcIEV1c7JQWYclzCXFfLlZayalglF/02YhwNKYnFnatKg0WTqUl2yTuLgsiojykj0WNFc7PUOD0sp6sY1au5Kx437bt+v3hH93GTnZkZ9cN7N9Kih2uomJucz0QubyWhdRNYNqR7q4otUfjp32LgVN9BugQqMqVaaF3oRVIDoBSWrkgW0jKyA0VWwRsFwCA8kpfb5at2IuYF9PV8ksbLCMxJwuVnfZcoOt/ii00mfPbPudshH8alXGqdFX01vH6m3O394OtxzH+SqGqc2OWWQBUakq7WYrLerVJmaSmWQHKdW6wqBXKpbPzINysn7LZjdYaKJRVZQDsOq2sNCkutY8azKw0LE8BGhErVcutkQz82mJBdUumx2kIEQr4dZk2p8NJ2PaxPsEPTO/yJW8ZrjVM36qbV4t7MvG05kOdynFbaDdW/fdzOvG/u5mOO2Oh7MIuu2iDFW1qnf7tYCMhmv2UsH0ypNxNJumM7zIzANXUm+GpOtF2To9+HBizwVldn0y+VUoVnq2RcEVDPZCMJtOzofF0fDcmAYJMcWGwsSS0Vhel/Uscrm/h0bG42G4RjV0Yi89u6BFLjKInC36d3WrNbZnDB3AvNMpMWHWMSkgPpQPA5qAFrK7zmK6r/RupbyUKd9GeTlTvp3ysUz5DsormfKTKR/PlO+kfKJcbZezvZ+0oz09GYpk6vgbbaCq5G/4MgIdD9wrTSajsD9u7oWxguS7DbtSESPNZJMkr4NuCdts8t7dZgEbfTXCX59Mh8+djGf9Ec2dZczMLbpspOCd7rK9r1YNh2nrjXA6G7L0BNZsUZVpWmp2Os06Oa8+2Y/C8v40mkyRD9tCEdtHhSq3mwErrdomr/17fFl6qB4lD+/PdNUqMhRsYRkVp5zH0pMUSMrVGrmFulhUabLIFONTk1tK5s8UlzdY7JNpfTidCgPJKjKzTqpNBguEZWRH64gKe5V+tGPtiVdmFwakUgXXxubY9ZBvNdYAqdMtX1IdbEjitSriIef8C3uT6ezoGsrhDWHS2fzcQlExAF/I9K9jQLJkvVr/cLI/W5sOB5ZI3i6rjMRTBj27ynJpm1Z/NgunY6rAqrbMCsFGG1utzXzuzybtMBo+F9KJiAw7RjIJHzrJedKsM90fbzn18yrVQPwgoalwudlNyehgdjgKg9CNnalrB01nHzscAUh0Ge2yusJpBFejUZaNJdfx6y02WOPn52MyCHMWJpK8aL8hq+PdAsPR3zpvpzEZ0zoG+l6kazjQbJS4rSZvsY1e091F0rUi9UoomZgY8jnToDzZh6Gpa7fwUO0Qu5ucXLHbkZ0rnyFVMKRO70ez4fYhxYek0iqW8T03fHsoydlyye+ctY4BUoJOYGfRGFyAnEqC6r1+r9PEyhgBzQFQOia5Wm/h3lOSGnCsNFqTaCiTy34CyDGuiiXE3rUHIYN2diq2mb2GA1KxBVi51FZnReSmD+yY2tExaFDGLFm6tZO8HE8dpsD6XXKYpqy7bTNxJTZk0ly51jQeax6Pvhd75ZQL3Rb+rN8zx4peu9voVM1BaoFVVqmKd2MUYDHbrIcDLzhLVfid9jPsXMa5A5tgulTFVVjqCT32K8q63uRkj79K3rN5W5Gj1br4ZeTztgIPQ9AKtmTc+QWwcJ2Nt7zohr1UwcckXabujH9P3OwYxY2mPZGtkLeDWzcTfDwpswwpn7BdxNp00hY5Q25I61OdaX9s59mO8AZ2Yc4OnR7bBvuxCAg0xfJm3k0TvUrwgNSzx5nVdjM5PuQyoHj7yGdgdqMoZCDJTrHQ6gbrFuaILaaQmNZSCrKkllNAQumYHMMtzFFaSSExpeMpyFJCTDEgoXTSMsokghQTOzUHjOldNge1JC+fgyVUrzA9OagjemUWFtO8Kgu0JK/OghKK12DzqmW01szPtTiURGCKDUyhWafXcXZo4mKmkOv9fsSytjN+kiBJuVuqlqlQQjou6GojW/TEXlk3nRay7pKqvODNQQq27RxswZr6pLwYtNp2n1haQz1Zdwlg2aEmgGM2ZxYIK9WujpV5YOes2JTjR4DrnJsAnwi2ppPRqDKcWvMC026NfYNdAQkbq23bYptmYg3CAZZtFlLv391ig7SGtgwF8bRMSa912Zq0FxFMojPyi0qPJrhLJuuVJyP8EZ2fqmWlz/GPt8k/uT7/5K3LQuMLlPQh/3htQGCngPv5J7fDP3lDKZhN9miwJXn1bKX3nOkGwav3Z9PhBaUXdm+5hbLeveVWEm/3lttIcru3CjC/e6sAC7u3CnCh1Z9ipqvjQUg779z+cKDuyxBdUZ49Q1B50B/th7TR++Y8caPyVpFSo78bKp3b7u8OR4fg60g2cDIeRGbR1nS4N6OUE9yN/nTYp8n+bjgdbq0Oz+1PES1btjs3K9SO+SSjCTeYWCh5081802Cvv4VSz7Ul/oAXIUbMlDWBDXfUvASBVZlcGWCWAoaUiILJ42ShzmZ+s63L/b0IZU6bsP7MmVOT9OKC1/I5/wnrOQC9pCR+O/FTyRYAMdg1sgsZ+q1Y7lm28Ov5F/cel4qM4ScwQmZyEqwqOm2Wmg7CXUgNt86Gw3M7szkkwnkypASlyoFguDWHktLhxGE2itWwPzMT9Y+6xfGSKlW+rWVQ3Gi8cisQeE5GRWoGSlpwsdAFoj/iJy8225UG6VJxtS31y5WGMWrHGt26DG0Fb17igcfZd0U0Jyo2PSluPukpTsOSXlYsmpPF5WWbXsHRStIrA1u+qr1hgipXywInvSY4a2Lf15aDs5JexyQL/Ppy2QQibwisy/awdQKCpDc65+imZrsh/N0sQiF9OPukyO8RlY45QD9ytVaUcTyqvtYWN+HRATpL+hiOKtL/Y1fxrEkft27Tx6/bfr+pY8vffJdNn9Cy6bfI8Yv0ibXVkpS/tdky6ZPaHZN+W8u2v6V1piFyurWGGSK9jVT4vL3dqUn5DlIpP7lYam+Q3lksbUj5KaTC91M3LJ2nbcAQ6dNLtbMyP99OKnjPIBW87yieWZdxPLN82hwrv7O8ahbUs8otUy6Wu23BK+EySLmMkZS0smrp+0QGhZ9V0ttI10hvJ12nW+mvSir0T6/b8dDbmvBTW2+eFr3BPTZ+TqOKQ0LaPN16ylNJW6dbTxU6d51uPe0W0vbp1i13kAa103Vp1yHmLPhddkeZlw1xkkjPkgofd9fP1AV+T6Nm3Lt7G90zHdLvYiMRvr6bNCD9ng0ETnpfK+gIvEcq8Ge3z7Sl3G+31iXdbHdLMu9bAd416aBj+Qg7DXPw2WaaZP7ObRBnI93ZsPXDDTvu52ycMfpyfqPdaZOOSG8j3Q0CLLhSY1IpT0hvJ90jvYP0e0mfTDolvZM0In0K6YxU5LRP+jTSgyDA9it1P6nQu0Aq9A5Jhd5zSYXevyEVet9HKvT+LanQ+35SoffvSIXe83QQ3CYEf0CXNwyHz5eMkPxByQjNF0hGiP6QZITqCyUjZH9YMkL3RZIRwj8iGaH8YjKG1R+VjFB+iWSE8o9JRii/VDJC+WWSEco/Lhmh/BOSEcovl4xQ/knJCOVXkDE8/5RkhPIrJSOUf1oyQvlVkhHKPyMZofxqyQjln5WMUH6NZITyz0lGKL+WzO1C+eclI5RfJxmh/AuSEcqvl4xQ/veSEcpvkIxQ/kXJCOU3SkYo/5JkhPKbyNwhlH9ZMkL5AckI5V+RjFD+VckI5f8gGaH8ZskI5V+TjFB+i2SE8q9LRii/lcyThfJvSEYov00yQvk3JSOU3y4ZofxbkhHK75CMUP5tyQjld0pGKP+OZITyu8jcKZR/VzJC+d2SEcq/Jxmh/KBkhPLvS0Yov0cyQvkPJCOU3ysZofyHkhHK7yPzFKH8R5IRyu+XjFD+Y8kI5Q9IRij/iWSE8gclI5T/VDJC+UOSEcp/Jhmh/GEyTxXKfy4ZofwRyQjlv5CMUP6oZITyX0pGKH9MMkL5ryQjlD8uGaH815IRyp8gY0zU30hGKH9SMkL5byUjlD8lGaH8d5IRyp+WjFD+e8kI5c9IRij/g2SE8mf10aATLtqM7VrdoXTsqnnim9b7e3viLGlvezrZFfduNuFfrzSabCqtNw9nYaRy2ka7lJfjunNHymPx7PDjBv1Z3+AuqtzGcBBOlOfFONHt3elIkFr9aBYGk/3pFiS8aIp3h4Mi7uB0qyGRGToExBm7LJ5rcfAcgiBKL82EcXzKaKc/mNwfkfV2cFsIIezgY+K1DsJZfzgilw8ZbySOCN7rASGGkFAX+YVZuGtio7Zq8WC4yTkXNpY5Q4pcbLfu0l55x/7/7XIL72yKMMgvb06F5pieKR0zzCjvGjNJlym9JYJQz1beRLzZmTj7uYNhNNxEcFrlSdxN00lViPD6I7WtF6A9jrYn0121oxaHZsZepNWSyXV2cNXHwjqg5f4YIAeYqlQJ5DILwb3E+2VqF9XllLOXKleoYxayM9kfDcrCX70/BgA/10wnnIRoDJsrkTQhc3zbyNZguil9qVYn9mSkq6YK26xOhruT5wzL9NAi2o2MF/WpA6NIL9bqCiLT54ZjTkvS89nhYMbA1JVz0HXryS6qq7akJ5xl9UBeXS2OcJ25qqCgyiucDw/VWOltoLXhOG7E7AqkMjwXwl2Okwol6z4/V+Wl4PzkAlcXlCA+tOP0cv0Lw6jTP0fHWrINkRq6Hq8uEyC3nV+5tdOXI0U4jcDQScl0VK3IkL1I8s2DcEqcNuz0mV/1Tk/nRiZ4a2J5m8w6t0sjuI/YRHTh3Ohwbydi99ALg+SGKGLv0IubHDHPf+/+RBbvG7W+zJLZgAFQ4Hhpm8Ek0nmF1svb/dFokzDdKhWRGutjOyjilM7OlyYXoPIarVcokXtdTh+fJRFfTsBTd0IsqBMOHg4S+Z4cTc7J7YBB6UzK8dib29tROMP6qGV9ancYhwSTdpfvUoK+7f21Wl8x4Gh2EA5qhonX5/SVFQtI5XzcDtNJS89Jy0ulxRKekxaLaU5ahW14yQpn4WJZLLqRQmNOAksOnpHA8r9CAseOjnZlYAdXM/wz2uPrGR6Ul98knDqI1IADt7Wx7nSe24nxODQUiDImhFkEaaMoZZooBLYkzueG0QbHPlAIBti2Z1g6i6pQcuJU3hJ2z55EkfL9ZlGykKTuHjI5ySSjz0upGG1BitIiZnIyDWuZ20ms4vZwGs0SuUhfMJQtL6zJ5NHx1mR3t88QSnbHSUMRm8quIAbNGGQCjRbQ/8XE+4MDZ48XLrY9iwZkDEsQztRn8oReE3Vh85oSgUGCGgnG3cle6fQHs3DgrsNK2CGkaMD1/pRpc7LPMmpDPEbPpKUUGuHs/gnoboSIa5f5eC6xJv5JxnmxpZDNnAsepKRFFSJ1n9bB4e7mZOTIR6ZAv+zxNh8TiYSAR+BGto4A3sNVhMX2w2TGZNFT4yd4HroBhT1gOJwEB5DeWjiWDQ8Jub4mWcp6PwpX0YI1cUQYx+HYhGc0zsNwe7s5Hh22EfpBf2SwcxWr+dXd3f2ZjM7sR5auN0+XgrNnXjGKwll1AJeMH12bDsF5u9baVfiADiHQl6IoNHbY5KsD3FTXvh1ug3Le1sbEWVqmEkRvUSQro+8LRNDfQVvW0ozBTfb3qgM8XJUzM0T+3awhK2kKD2q8BNk+GBLF92i1EBcDQ/19mkBolpQXr+n57gJH/aGq4w4fon7DdYoi/D8wmohAhF0d/L8wAwZQeSgknId9uhs8VH1nJ9z9BtwEGCOcF3CcDswkD/4H9NwkpXitqbhD3sJMChsJBn5vyq0Rtzdj63DijJgtjfHrACqLH1Hvj/fZEw+DcMS6DFnKKj+MSpPpwLk0l0AoRPubEtTcZFeSzt0YFlLe5hX0IyjoXJ1PhajpTMowKWM0eTumD8FzgCmTRSSzDP2QCC22zFvexqU+Y1U3MpWICLf6wI5/vY9LTqBVRNzqJ8s54jzI/uec/MJoiKs6PZQ135kEbiygCYAzu17A/u5NxuHYLaHF/fH2SC6V5W4wS3JpGHXjKiOZZct2OW5f73MiiA3fVgy1VPXe/uZoGO1ATDoWdjuTTtjfraXsSSfe0U5yVU47YtpjzQ1mMuzUHAmp5nZwP5xiYByyWDHc7TkW5g3Npelu3Pavosze0B8FmRmJm1jS9hmS8k4Yx/8q4QTdMo6/8Q+w+Lkpu+W+nBLy6QmgQJKcABaivWnYH4CxGO1M7kfWnF1KIRIciHkGfcnS2GBTeiCvlk0nrnDMNnallQsuc/zQZU505FRhttnqeFvOd4bVDaUH+9bo06+Hgs4mUlEJD4Zb8buI+GZFQmbm7YYuE8Q0YV3PwLhskaA8Zey+NGzHBwl2Fte4XD7bM8dkfaQT3CApqE8j5sjtjowFqVUHTOVwe8iGj9LTytL8DGu4ifjxE1vOc+gIAbWUXLIr7tfiyzgt+aTGk1J8JZfjRohxxJh5V0yQCw4Q4y/YN4zkFh0DJZztc1h6cb1YCmy4cEMvyajlHpv7LXvNLFd97iWUvoiAHUPSknBotdKL3+ldjF5ER3GHREE9bzMBGypfQJQpqCxqIrrY6HPANTI0WKrQKG4QjTcXF4rbxrZ9aKiDs+YKwJO0xy2JQci5a0dz05/3OTVLYALKTKdYLTDiZ58gqKC9Zq40CBu3INtr3d7buAOAZ1sGHLOxDBj4Y9H+9jY3WliMofhrhjUW5RZ+/Ux8jRmRR5WLDs6JnTHnM+afYrVi1s1XWEWUmvsz8VHF8FOPiWM68AXFL6G8CMbqhMBFYF5kYbfOR4CX8GmKm9FktD8LnWeHkdvKjuqftDrmWN5Yc10qr7raa/i+uyos1s4W7wnI6Jo5ucgjndgU3Mk+yLFSedjwZNXnxvu7AfaCiYgU3r2zEQQgIgsNZBng2J7bxypOXWnR8MU8Lu2JsZyO1VPVcoaSW+jHLDVXWolsrdBwoOMpVQc5scZ+ghqZwzCsakuCPuPNPNfCMoJwP7aIaTMv4ZcUVm7OkceHkl3Y+MSBZDsiArlLsyotD+NIuHhrN88IxHNvynP+6qp94ZbneqHZllzBPWlawA6y5xh6mZ3S9mXtfOxAuO0x3lwFgZlmrKI5cB8JxDWJmNHYelD2ZLJtlbsexvCyXBA4AKP5MsMM4W6/0ju77rOi16u1Sq+52rPV3PT14mf9jJDVfo+rkYZecbqVcMGhDSEWx+eQIkEqdoBM0RuOccPbxtBTzNlNp8ZRkLb70yEc6sEw2hv1D81iWBEH3BSN7sN/a7RPXMX1tmcKSJJmOOcENWhw3g60Zera4ajPaXfHNsjvGaBtsBvagBpN3FSTxb2q4CxZXylf3x/NhtJ7OF0dhqPBhp0KJmiLBYXsUQadvTfnspwBysGk3pdom1JLsX64Z0RisEk8Z5Vz1giTy8d2uJBY6AVp05u78l9MOvDHgz05ESKG0GVlI4UN3NO9ePI3uT23nLzUU7mkMRlsxaglrRhNBt2uaJqBYnFF8gE5qcdVrlYqNfMkC9tpdJlbrhhkX/HED6Ns0/rQMkc3EUCh8govuwoTbNQAE4YWIxa/VmqetRaIBVV0omFrbtufraSt7DL0ks3L3IKjquR0cTx2+yoWj5jD7NBiX+8Wq9C2i1VzgWneT3jJu8Ect3e9GJyXQlJVqBfvTqrYN+9OqxYtyaR2qcwdrN/ucYFW7cpiWU7MwTExEIjRvhJYMSXurtfoKDvlx1fJ9VaL9ap5S3fCFN0F70lTOBt3foqF6qe8XFbzO2hST16usYKBXM6ksVOngCssoFWsuGeQV1qAe1V2lS0Zrtzmd3VTGptr4mvKzXoL9Tbwaw0r8Wiuu1j0ytMzkf5rmP20FrUY9TdDiQ/pPYspx47XctpPkephX6LYEuwRHQ/EoKu8XUkqWUHarSkvXkm5S1IgRmPMvpbbBCFH3ptNXC4XQ00nr/dUfjYJ+ru2yG5sDFjTKK/YlhlxAJR4gZ0xBq8OL2A92NIszcBECMwW8wCbsjsg1CcHoXNVJ6PBGWOyCFhgz1cTW+1lcNeHRNCnh1UC9zSJzD2FUK+akdhy+cgBAQ80HIlEDaMmUHceGzi2zehvO+1qRJ2zuBIcO981Ebv82eHgXMhWwvrF2HmEekxbuvQHQ4JzMoD8bIgpnfV396rR5Kl3cp0KaXyPKYhCmUEJcjgoSgQ8t4UnHxfyUhEv4VzFlx8UMm/q7Hq145eaxbYsdW2epsnS8djwzjvkYq21LlfP8gpMtJ6cNj/3cD/zcmd6h91ASwGqACXHVMXvMs2PW+KSF2BPUJUAjWF3wqN0jUpd9kJSPYdgB68jU1BvR6kbCIco3pg9xXuZOcaKoCS1Mfgn7+30o1AtKM9kLPDOPbbz+AHTc1QuU7QIT5nJEI6hh6QW9NSxnamCpBb0tGHUskdS0TYU9c2a4xtn4z3hGNx3e6NUmwzvb/TU87JAp2LqTZ7+GbeJ/p7xHIoS65Dww9u0+r/WNWGXWVS3uqzlIBxGwWR75nbPQKpg4y2aa4fJuLs3YNIda78ObHU4GsU4P0fZuq4x5BeANA/sGVRS2Ufiuq9aDjpIQ31dcx9tipW5wf5e7DSR/xWNTC7hMT3P4+o5U5W6X/+iuYsWBSbEiO+ykZB6We6IY/WgN3kOB89gn0WGckxDY56MqyD0/5od76A+mYxHQ250Rodxv5/EDdohhIipcFJAnvcRU3fgjDBMxevjikQOBvxLMdi58EnFm5IKc3JPK345rhAvPgU/EIMz/HCgsGxQ/9s6MsABQEEhDqU+aKfBwCxiXPOnmRphWGAfysAsUwL9swxUOBLYhzPHvVYfuxOpl2v9+/qSHJYSVLh8D0oTsBptcBJN+XvYjostu7UQMMBLbEqALFKvzukvxRpg/NBUBT6q1XOhZqDz6+rfkEsaZONJ35etSHXm+y04sc0ZDfyYVq9ygbB59f1xvR8HjaCe7eQN3A5i6bsPUf3ZOC6FmMRAfMztDDW7ys+YRf2jOYdk5v6v5JxjWbPVH0eM5dsY6V/HxMLE711Rn9D2YrM83+jrKRWRdCXcjtTXPf1i/OQMGPlG6p89/aOeG7VI4Ve1+t60aG2JzA8bqxOmwCUQ9W+5Z8K0xKGrdhhxyvPHMjHirb84jnQRWLENzQBfNs8axowLHvEDIvU1T7+EaAxhy+I0LO1vOkK/nsS/AgmiIRH9VT0HIq72Ca2/Zmx7vLNP4oIdwl7coCa7sCqo3/d20x3pbZ76F3OtGzAEfIWr47xtXGUX6J+b9vd2ZCPAZVlW1xwBWcTTCTR+Ubqsrj0Ks6hnZqzF4ojBZ35L9U3qEZcA2wadpGaDlSP3ReoJ6pEXAS1yV+BldjV1jXpUnLdVG1LMXFBdpx49D7FoZ3E74js5GEtLtvq7RUIN9juuyL85ztuq7zHkRElepdUT4oKtu89pUsdB1au1+o9G8oQHhv0xUZ7d3cm4JqEj/EMJkfy7uVocnwuz/T5n1BTjeazCBKUyZOmGMg5WWBbrB7JYdnMVeWVRnp9FwSrJgwHAP5gFBzhQLMF7w+mEqhdkqxr79i2wfYe8p37oEpVOB9RUvfAStVxcGZdGzdQPZ6vL8k74QL0oC0v2vQvqRzSbPGYsJj5Sv2gxEzvxATD6jMdeoN6g3uOJY0S5xWkceRpCWv15DK4hH8p/wWn1Qo2pl9DR37F9Gu5Yc87H+vQ8yPgx7/DUP3gyS1227JoJUsV8LKo/0VLDBjkabrEJH6l9SW42OUdkYtAcNzur+KXIMWJ69Z/quILbv7maD+nk9lq9K6f+TospEWoP5tRHU8USUKReqfULDGul4WCYdvvTBtax1/ACeoZ6FYKI1vuDdqfWoQ5RvMELj17z/nAusjcx7pnMOpqBrF+UeXWz4LJW+59OZP+8sWmLNmfB354+2FlyWVvxDFomEfvlpGArvyPCPhEZWJHUgr6TGGbymud4UrCVzxrAHgYRPRmrZX0iU7QIxV3ceXi7TFILqki2GjVtvJO6K+YAFmlVYMaMvtVTv5vxF5p2LAzryouAtukaNofzWxKAuipbtijrkfFm3KOaZXVDtmxRGhZkzKB6hLopU7QId1kIq0g9St2cFGxl25bND2cfox6elmx1sI2Lk3o+j0uLtv5e28CCBOPxWYDF+a7Q+FiR+qTW3+LytqaXCqbsIq63HQFZxG3pdy2c7IZy3fc1rW/PAizOOdtzDBSsO+ZBFm9HXiSwzlHLyV4t3MasplJHxD+hswhtEfQRjJenGKXJbDbZvQSVnzyKcylCr0iR0pqhbKl7KDtLGZ37qaM4nQm+BLUpyitNrAKnm9UbsUkwasRvVtpPy9GhuHkk7v58b3MiXg3jWzceCrCfdzDLbQJ+nQPLEBPgLzigGVMCfb2DMrmcF1B0WTJvdEC6skrLsH/JwWxXCfhNDixdJcBfdkDTVQJ9wEEDM78WjP3NCuVXvB22OOtCJDKZqZvVjZeCW9VoRfLDSzEyqqTYA1zBVj7HlGVc7BDwcD5btigjA2r1B7LXgLKbLVsUOgRUZiYwPWaRqlV1wQBP79sfsq6rQ1O2tRX1YW2K6wnbjiAd/Lmtwpgb7yet+IitIGKCP3ha/YUtWheG8kdtucV2iJ8QDJ8rrU6rf5wDm/6rxHgiWPqcrcoybqsq6j+6qp3haOCark0n8kOrz9sax5aZQqD/aQ5qlQDwFyzYkDH0g3C0jXC+aOHxhk8TVVM/xmENYBt3dhqF98rUX2DSX2bB5pe1DfUHtuR4djNFT+/1dodjBh2qt+fVH8omHxfeN9fCcIGOcLSZqZb6K+7PgzG6vdbfZS31p7LAPu6hQO62V47bxsv/UVmQ9uI1kCuIpOIlaUWJfs6ldg7T92M6JWV8iU9p9TMZWIdW3CK/OgOqpBfKP6sJKjI+g3W3ek0Gq4W3EE4PwsDctsD0b3IKIXJofBeD31Zvz4DkB8Ir6rdSXondye3xZ7V6h2axxJevHapUR/1OpqsO0bfJvszyu7KY9T4F/jc26Xc1hbgmM4J3S5CI6xpTZpdlakd9uVJ8MNNBYB7TBijZrGge4IqR+bOU1WpKOlK/mtOfSavMVCAhE0BUb8+p/6XtDYxxxV/k6Q+6skQo8YbsNc2LPf03sWwkuAAN9eOe+nIK8znwA/nvKaTGSE1cAE+KW9MEblqz9bIP/48USnsL++cUVkbrmCzDKvuqp/9PWicuWXKP8UpP/d9MFcNUr/bU//D6SbA5wobr/+btoh64jeIgRrhz+nk5YgFHvqN0XP03baBd9MUZi2X1P5kXc2y5xAuzt2oCVA9ZvcHihAP1Ek99xBuzCI68e3uL5tJ3Czi3mlvna2xy+/iX6hU59YPeCJ8WxT0Yhvcb3PflGKthzrmqeMCasToXvIzAZGjJbvSz3AIPwkkLFdpkqal3EWGT1b27Z8i9N6f+Q9yWbiJiirLkPptXX/buN3FmeXbHoR8hhlgM9RMZcNl+lmORibHAipVAsL85m4bxVzve46mfdPXl/hanpiIEI2YJRrh1sjXV8d7+LLkAfXFO/ZyrkG2e6z4W4msdZH1ygBUzavWgp/491uisgQfY/vMid0b9i4hIFghicGxwL2/RTHNQPu/I1cNZfyCieElOvdDB/AORIT68/mEHaeFZsLsc1sPxvjX4L8/pH/HMPLcn98dWOVIf84gjGDD2bH93PFfzm7aGBlarIvUJjxOUAVr0s7JTGfBvEY90axiTJUcM5nZ7aN4kyET894vqW6wqDlR7HAtjpK94kdQEeyH2etqYiLasqB/KmbdhmOIPaPW/LUpHIKbZB7X6PxkYoSy2XvVCd8wJd/eIcklc0d1S/EhuMJTIxi7dI7XqAPv+n7lgkENdezKZUfyCK8ayoNUXuUI2rWqmRq73zdL7J099Ka5yBM2e9mVP/dcYbpu0+vsRdvQrHm2Is7NgKkNRdZnbr1vZcHD3x/u7qxgEFE69Mqf+t7W5VMhQ44pX5dQPEBRjs0OXj5mM9VKe2TcfNhmzjqF6Mi3Z6pKsKLt5+UnE69RFQItcDk1AmEk0C7Rpn4lcfjHUovsRRrKKPZuah7XYn+vmIRattjtkPLUhCSjXk7iSra7PxKahJOcx+CA8LFu2KM1NVtjcp4Aepx5zFGZR72bloGFZhxFH8rEXQy36PYQRBoT3zbdz6E89ST3xCMgiPtsKISB8ASxiU9HfOg+yeOgdcS4zCZF4Kk9XT5qHWLTNkVEQCV4T2dT62zJli7Fln0yLDhCXV7ekRVs/2EbN0PzoPIEkM4dMVXQR0CJj6kzfk1XmQCs2l6RoEQ7sWEpI3epF3B7s+yVAyaL8qtYv1kjO6KZoAXUv1ZHxVNJPDtyrfp59Qk4/wS5LawfRMKmvc3iERSJiEpvqjdr22BHhRMHGmmQg+GsOkYlinrYI2wbGrH83+9dWCoN7iPwGN5HcmRo/dBqO48W1woWTpZJY6+d76p26716bvMBTfxDvhDbgK+CamYENtw8W1Hv1mLbE3Ciadf8lrf7QhHNHR57YfU6r98UV4pCItYsR4PKP4rpUulWRIiMRhM9r9f6LMYrpQ7YvavXHBgHlMAbtPvWXRhZ9fJcpd0giR3cxJmes4hg/VSZAdt1PWpe8DE26RG4yH6fV36YE5BZKKDwEgU/p8+Ehwbhz55DsO3Pq0/pggofpy/bT2pkSrUXe/6CFU9kwCdTslMLtyRRPlFifDPA+/Z/dbUUNRyFiB9P/Rc+YbondieTVa3LqvzIhMLrT5C6DdQqj+CYT7CKBTPIw8kP4GdEsPRq8iDjXZjgwBN6TUy/1CEvu1EMMsAG9Ko+nh1IwzzLLsOc06b2e+ikvGrJHcIKL7wRa/XE4kuG+xutvMRITC1vv1GuyPN6RV2/2JDjXxuKod+bVr2WQau4Rwlu8A0EBYrp/IE+QKYaUsTr7u4xM3Os99X5P/UZSJ6fW0mHAJk/Nhzycn7hGYFTiG+f1O7JQNsX3afXbCagdEjRAl40yvibPlUdcI6yYmytuefLqdxJ4h1keNzAVMP6pBBpsTfbAfGte/z1bDVvyISpyAX9Qfc4zTwwCcynE0Ui9ILeJVjERG3Fb2BoIW//LO1ID+PN5rky4HWJFWivhX2ArGUgtIv+B3BRDEaOfQcFX1PNzYoUn29sBc7YfiWw+mlf/yWMLpV28uAT8KU/9kQPHbpKAP+sh5t0he7EgWirqXXn1x/CRuW6m+w946AxbOC7lmz31J4ycMx6+1Dbug3pPXv2lZzUT/TFKzHge1HhKW2J12jZYnZq/9+VxjKYWat2CFfU33mCyRdyc8HiW9nvz6m+hzS0PYs++tYgImujPWP+mCNkD6+VwGWeF81mjjMXZbDrcJFYUqQ/l1T+aUZgZNEP5WF79F5zmXRyt5IMY38cdWgxyH8D4fvU/EQgKxEVXREdMo+IeITcIt/v7o9lcBQO/T700t4ewjaa9xVM/Zn8X28J0yawrL9dno9ujCBW9C0v92kQ+26I8DhxG3Lm6QGVYSEstyzNYxX+tYjeQRxO601yTlxYC78VAr24/xpXrNlwu79Ck2EugBfO16NVm+6x9AbJgyqVi+YwDLBqAeU+3hBuL02xcbeupewtMC4GZIU4OgUOtI2MNU0D296r4fasJNsJhZHlgQaaJhRaGUdM2s+UF22/FbT9zxxCP6cGqcKSWZxKYaGO0yXqZB4Wi3enPLN7naT1f6VNzCKnzRlfS543xAqu4FZLS+AA0jtT6VEEkJydB+ywBfg4yOGLgEsNhMT7oqdzGHEQ9ul4N5OkM8lZH37Np+TjvWls+Zp0+K/NSYLVRsQ/EcvHLuPh5Wt4+LktbFSzAPUaLH67Ld6IzUPvqa3EeGL/4WpoHJ0/DljeqQbVUE+Wyr+4qxY68HlqJn+kdTx7NnUg+SCxdGSZ6R8d8ch7H9H4R0qkUyfJxaVqXXYR2aXKXl5rtCgDpMBHhFQ7oWibwKx3c9JhAr3JQ20ECvtp8S67R6ckXiPx2p+pLf9dYUZabXXmNmpmla+vV9F3kdfL4MS5cLzWJIG+QqqT0MPM8MHnFeKMpxq8FbzIlw0an2mxI9zenzwwfbmrdi8dH1I6+aXyUPP9KO3pMrLuy6SY7crpKPpxZJVkUn3qWSrIYgLJ82QmT9SLYgO5TXpmc3VVpmKH9UWjP1flUCFFW9Qxnale9LS/03FLuCFVO6GwnnMezu2FK8uOQfEg8HyQhPxzAVfro9yLS4nqBniH7yYvIOhwfhJRkBBAz6RXNxtxyHYCWIfVpSF1U71OZktlzFcKZRa3Owl2z+8gzO/P8TpVq9kPrjljWC0g7+1zSWabepzLtTICEXOKeYjz2hXHfeEr2GepnwOCUiw1vMGNmXnMzYqmce9l3v+Cp/AExDFP4oqcKu/sRu62UvuSpBUu6k6B7eib5Wjg+R/QfG2sRNmIKHt72DP+RjSCtrSck2TAm+BkVYS6CqVkHavUIVK+SDUQksQuRmn2c2LGfjNMOLxvI0PEPHObk7xAtQRfZEHIQUfeYlY8KZx7MtMNt5RXGyMhuBrCPVwGvrIPnTnY3h+Fq3/4uv2HFm9vKNm8kDb+KSLOv6wvlS+OpfGqsVdZYa/kVT7taYT/pBebT/j3YgPlqY91vV7Eu1VrN2hRbkZvrIX35o7x8PAS3GP8FZWCZb5jCA3mVG4Xn+luHbnfvhOnjkfwczYoIZ9kKeWyHTzwIWfdHlhaEjz4azO+ZOXLNq9K2MJNJfV5OLWQFtLg3lQdpnHsMrQhvWi1luVye48WCvZwEVGwe2zWDdVt4lbY/eLEllH2ucUcYkN+Ime9UGbGT6PgXWoiY7aBR9nvysykA861bRxhFn1mucnYwxRWth+6AJj8/dNAX5LRXzYDniUBjJjy9MKfk5IrcvgFyRzCVl32OruAXn1K+fy78auuu+XLcxdGwHxZ1XyhV5udrpFqG3fMrqJL9JYNX7LAJrvsVtAoU+d5q0LN/8UOq8Wi6bJHSUzcLd8+m5wPNKue+NcuS7TbKxY5P1r5Alg2MgmebpQZr7vctNr/BaR41MiAXL25YvcudNSWZDoJkSfTYimaxWJaNlU5U4Itv1jHTms5vha3fiSNngL3Ar+GYmFrnpZMrwKpIynm/2c64O+TsNJnKyR899/CyTQbWZ2gkni1ZN8RsO2GSNbTnQG402TZDMMwwXppTueGWoZm31CP14zldiEzX4aBpYNSyjDr2/Q5rYHEHXQG4hJlis+PKd7LLlseUaFlBeABzVyHqss49LT8ot6vmU3Cq3JJJ0+4LaV45EBOZO13cKCY4eYkwkBZOB0bGC8bzvUtAi617OusGuLQmJnY5MOBjwdmqcW5XzjTl+Tq54+1uIJATpaL51t9Jjk7yIWGzEE9V5QRBvM7PBJkxiPZdelxZQWviSnYkEmNRi0TB5APHD/kUlsnac0DkZE2irFqvg/WoEa0RwhjNEVk0D2qb+4QA7A3Wa3PMEPsNHo9IP37uKL8iCBv7hHamlPKltIHKGy/UrBTVbaQFnRwV2I56NftJvpzlYWxPK96xEVlD5g0YhkgOfFjQgjp2CRbYVCXOkRzqOSkzwDfm1PJgHvQm9GoeJBLFUDyQU/nB5P4xGyZOXdJZAR2MkEU43jpMoQsiHsQ8nTVtdLSgFuWh+zQy/De3a9Sjc0uVdFeRCjswPc+A8KSl1oxVFYwyIA7lxBWLRycCjCGe8aPu6jaNgcmt+0WqyeWDS0lDxV/5VjXz5T7dNh/AxEuYR/NstbLVeBvZaictLHTdfpwbFOXfneTTH0ULZhww9QpD2fs0s0XjN6NGtiJSb8vp+d/hRUwszql8yWkXZGcEEXAhoewbKt7iMO2hA5jLcvaeBDR3K47aJhWZS/Ec200nDZTiBl4UJy0Qv0YDpIF4ajhStFvYlYjIOqF4QJQXE9423AGiY9xN5pqBv4fNuTwZE+yBSH9UNFzIztl3OYRA5MAhyG6f/n69aFCUd1PKhrhPLE3EmcI6oKoNvNwEkh0ll9Ps0AbnbpVPcYR7O6DMKANzxXnkDYD8Dlkuwak3ZNryK94YYl80LElYZnTJcPryxWH5Y2mH7O9ciBOv2poSbaSzFcvvKhfRUq+W9XHWz7RvEdyK21QnZkbGscSNSE7OwzbEvKnX5tUpM2FOmO/21GWQc9236X1mY2Ixx1ygYSLH3emoOm6E93N4AnTFPGn1lpy6ch5kVjezd5XpLDg/3OtMRMTI9+oEVDos7pqzwbK6BhHaOSd8mNfXJsVUR96a09cdYdVKIcPr9UcQqrGqH4SJ5yZx8hvmuQ3ANIfeh83Dk6PvjfNw8M8Y5+ymRDkDMOQirWUeSxB6chs6EfDMTxzSn5ziubjVVgnNmxdVOOPfE//4iw3iTAO/hDhEg/BRrWZsmb671Ly7h6tH3msFd5Dk2FE75XWJYVDKw5WjypI6Hx7KPh+pgmZ5GKjr6x1YnXWYtu95PW/f/OzNvOtnsF4dKcGjtZx0lf2bIM3WPb1KV2xc7MpZZLFB0ljv2nI46KLJ1QF0vQRUOkyAuW2CyGeMEPOR7ejdOc6bMapFrCLLU2JiHDQmYOGLPvusvULxTrgxRNOtrsl5s+EM1aSnWfxw2Fbk75cXAOhcYccGlrFhoRDqIBHqFxP8qjxCdq+Nl7ZZt2hlFibe2wGrRe7sjnHbem6Iusr+RnkFwWcm/rjpYcNacCOAE2iMeyLi5fbNqIDKgRktClwgVUAcKkBMxw4oV2PesBXJmxVvad+MTceDFs8mZo1weJaV/CXHV7jE+BbmMc86uR0VUCzFpQ3Ykbs4fKat/vigH8l1V+geg7L17HHdOXJsswg9U66EsmBNVNo2WrNamK/L36Vhu9yy0eUnKm3rDdHaZKtvxrOpvAw4YPNktduvqg2OUrSU1s3DnTaGleaLnMe5SThP1AAcDvl7Zv1CNThiW8yzIqi4u9nE9HodJp6lhR9+wIKSuwPzixxyrl+9M5lxETFzRS/iIOfysQ1IGtvZLExsyWF9IwLMszVA1djUTcauLu+alTD8e5xLZ9WB/GKnkPQZpBataBra3s1PZXGoV3Eu0cXOZG93gou3RaRfNBJ+sHUZawgMhZuHGUqo3tRd7sVwsaj42JytLsGEVGYZsfH7fz0jkLIW5QgzQhd82NlgSUwCcavK3NCds2x6BYvesGiQHUYtpE+XoqVJIRBFBpJDjySUIfsZwSqd7xue5TGycSMiWa/oEl4aexDTMgikR+zsJn6UY78i/bhpjtRHCAp0kq0rcTOxvel1kGr7BILMjZJGFMbdF842iUHZ0WCDJ7grprNP4EiPw/uTgneRMlREGXLkYrUBgtIMo3WLWR03wvuPDAHtGSTMfVICN3FwYiaClutzobpYTcGxqBFzJCXTiz7abcxeMEcH7qKYTgacNz8kVp9jvxBrWzbLGnWJ5le/sxduNZgfn8gUu7I5YQVxC0QXxXlaM68D/NBv2F7KQdymbYa4iXEFKljNaZnL/z5RMSKc264NisYwyuFoRPy5KpCFBMLZ3EAW5+e0ZYaqcvJJda4JzIlRFbnRsFlCGfV6lasBKXjzTVkL5kENktkzVBCYPFI9x5zKjwLYIWNlxfgGMjlEleVXldiAyDAWS1yP+tEsVjpLXX0KpboYHECGu+rPc7bMks+j9ljNhH5uc14P46VQ5TwrH7v0IoOfWNlcPDT7k2qm6+KuhaNLMBokHDmijolIfZED1xyTxvgTz043F+4/Y2qrIktLknWwQKNEXpH6Qk4vUkcUy35dhTAeioDJQeDsd2xlHVv2NuRclQa75LAjZ4dwUCZQgwbQZD3El9wM+zOmlPXvSzTPBOZUibuppKS7+AN0Kgx5j4zoGZ4R5yKaHxOFU8+5ogSoJfrzbJa4bNv2pFKQvdjs2e9nNe/CZ6g+kFPpYlD36aXJJh0dME6M3fIgxE8IG5bmMWwB5sFsoZH6YE6vWBHH2yaX+zn5Jq2z9U07ydxG5fQJuprC7Yo6aeYsxlm3hoCVcGoO3rrERkfz++T84lBi8hWRLCb18j1KqdJE6ks5fcVWZpb+iXPLwdx8fDmnrmLZn50SfUN2V8sXplc5PQTMNkqk1TUZkxSbNi6DcvraGRPsTNFncuo6KQaJFD+bU9cnk1I0W0fARN2wPdnaj5rjDsiuLYeQnWT+v5Lj6BEPL0h3tKKhWhGOP5rTNx0ML7GtfTynb94aDZkexLSiHm66goq8y0DP7lOPuBRl2Ssz1D+W049MBI4YpLE/CsUht11hKqBqJ1L3x5PxoShRNwYZr4kc9hKrwwEssszhAQRoDqG5/t7OXfvh9DATMZ47bzQ6hIC48uR22/zVON2qdddMUAgXbY4CViViJxf/uUGv9Mnpaw8DhjnZjKl/DcMktZb7KJl4T2+O0HMTOXRWh3Vk5wRfkdEzi4QwzNKxvrZMorsHW8JJsHdKmLIZ8Ha4a22/vc5CczkZADfF3IycyGdR5emoJC5LAW9UrsIWCaih9m3WFfIeBEA7YDOw3T3TeDEC1JUPLXIoqad3aViqlAUaiIKDROfSgBwW4BtTZusPZpM9jhqQSJyXaWOyy7nGjt+bszLDqCwrgRCntCBQ41pYhuZxxymVFxLUKRvFLE0n/cEWTHFLOYe9NS/359FiBq9T9fy8uLyuH/WiPDY7tgutLNheXKoX5NVCHcLIQnmPFiz0Rme78jAPJmOcTacV6p2eNmodl/+ZcPtQaAtDl1wGX82pRxgNUi/UekFypX6ErbLb2c1yB9cfOau52N/aggWVV0uRxFEDfE9bsxyXO8LqM9WxuFzGmaAzA36WWjHv2WC7oI6brNNYAkGmuJqcrU/ajlv9wxGiBnAqmls0crn89Zy+LDP4ZEn8S05dvg2lDXtqZRhXGOpVFI1VxnZ12NyfRSKK8dYIi0+cSvZIdOFKg9hC7MbSXIWmEFvDno7YWkfd8UCs1dZ59ZK8vsaA2mEGdO1mrBeRenFeXzcNt6zpDMLv3Q/ROBdgX1TXm35KU9RwB/ecKMIqDNuh32DqfMJI3A2I3N7iqYftyQHicLxVZB4xRqDdmHzugZvS0Jyx5AvNN+Hnzg7lEWfVXmzWYIkRPHxrNNzblN9kJca9HZ7jXy7p8/qRcIcknQWJ7PS/NK8ehf/VDvcw6QipbOcSYo/2L4Fuz19uMo7Yo6M1yc27JxpnYQl2RqMtjGujvM7LR1qL8nQ+0zXH23MMnKmKv1AGycpwe7u8sy8RopWUFJZCa+tPLihvYD9T16CaRYOPYVzmqlDK27zT7IItVRkkywiVZPgLW0I9Kppf6iKYzg56IiC6WNwk8CmKhqTWhyy86dbOIV3opb2LYcuXQl5jQDKTx/YuDV+R8cULw1sYM4R4hJC024EsZsbo5BCpl+d1Tool6U/Q8puSa5keGvMUCnuXgi6043e+RieV5/7kX6VHYjY4Ff/tbJ2gVmQ5esTRyK/b2IyexpWGzivzeJZ9u4ULtgGqlRIX235RNku1WmsWZUvVQUf++B45r1irFs21nrn6JCNfamz7gfsr44W6ubhdyD46WLSPkuSxAaUluaeL3yksVxsbUBSsYzEr7dAe/1OWlr4xSwkntu9Ctu+Fub4Xs30vxR0Wx/aCjyuzh3gQsKK8babclTj4cJfTj+RiIm8cZAt/tiqEF/amWGmWtgW9nr1k113jqzfm2Yjdg1oLeZArrm1WdiAW24LelFfL0rGM3kJeRbTfT+gmUX11pbzcS66q3R+EtkXNhMif9bTvxOw9obk+d3+dvlIVfSGX9+/qFmsyn4VGk6t8KVFY4PJe/ty9EfliUuhx1x2jLK21fVSwbSooL2fLWcRj9u+orZgpOk4vJCfs5FVXhZuTtGrYvwh8Cn7N9/R6tWbzjHmNcFnDd1+mvbwKF+1uZ10wr0glgpKHSSERz+vySn5v4cDF6bl92XjNRUGi9PV4Zkzcm1m297ngpAsDHFw4A4/UG/Lpg7jVeN5oTSQRv5izDi11P1oVXZF8QkVmE1fTkJH7FD0AYJT71WDB5LzGvwaPJW4ahOZNPK2HYiH12NpGPLS5pzIJvhDZkH64IdMM2WzXb8kwniL41OIBy9d2xDGA+EEGZ24A5pm1UtfIHzkMCOj7ojPm7Yu5brB30QQW5h9ieua5Y/rgMLdmVmheqMgLJMEpmI+lmiKlhWBd/oy6K9n16gpLKE3TfIFy2eZ6sS04Zr8TmZRXXDk2DMfTB5Luk5DOHthvQiYvLU+Zons9eVmtmn0reflFjymvkMch5vlCBnhlCkyu6K8yZFFtYjGsTxn01WVEjk8x619ocd23Le8dVe6sL59KViyYdpP5QKDDpmB79rVGf7TBnsd5xOkjrpuW5xTygw1Viy+ni+1OtWxGp+WvxdMhWa9R3CDJFd1Xp/Pr8vepCuu38e/C+u38u7h+B/8urcvfpFpev5N/j61L1EDmayW5GT++2uSyXHInsD5YmYDsScE5tS7Qy9gKSC6fu1i/wjyUurIr/15V9xtd0qtr8kf6rqkI7NpKh3+vq8iIr1+trnUNjRvIlYstN4CH1TnRkd6I6SK5SQz4zX6dfx8uymBk/4igjmKReaRw9ShmXOg8+i7+eUxlVVo/tlgqCZuPc09UHt+Wnr+pLQP4ZrctPEH+8jPpt5SxQ6RPZOJIvjUomr8f+aQzJeHz2zC4JLcERkC3ymBuE8DtMrg73N8ifHLJ/CnCO0sVmZmnBC1jKZ9qWHjaWZM8vVUtd+yAvz1odtvmg4zPqNZlPN9BHEdG+MxaseTLuL6z2miZvzz9rFK30zFyKdq3R+RKwr972MAC7cSTVyFvZejLaipipsmvNrsdS2uNa0Bst5nJ9To4wlZ1terXKvYj76dr/pp943VGVLgtvwhSz47VrWGvFu8otlrmfs92dXOp2MASkCsTbGzVfKadrkXmFWcvqo1VIeC7Qa66CV5DU+Vb5JbOOoEsm6sGfrFt/nLn6eyzrBOpuj+c5d6tNxJdfTQhAaIAjtJjKlV5Pd40PDyukn6h/PGxoJ4oLe0q/lY7AU9y4rxFUrRJ+LwVx0u4uI2dTHp9Mhqf/fD9U9rNsyRPJYkJP4280DZcPb0jT+PIPLODU1MyulVMplOX1/3yGW5syXvy4euybzQ6hzESjcrDdNdxUojzmTYLMUxMsIh3MZn9pXiebZ/LMcaxoNzmsthCV8wHRCV3MmhVGwlfp+Ca5HISlNgo4xWiTbbXKztt35deyV/FfJeaFn61jID0GpGfBV0rDJJeJ6nt83rDSSysG+hC0Mk+TMiS3iipI3WTSA0/hmypyA234J2pNWW2avVi+66uaVG37wzJoWd1M56mwa5Uixa5leTusopl2Ttur8bJXTZnwh6RWqJHuil5VIWV52CP9eutdWyr9PhNq74JrH8z9ssu7CewfPy2+Su531JtBLBhW31bvNpuF302mwaFO4PYnn07NobJsQ/nnoGl4SYnLn4HLUXc3ynjI31WfBJoi6ahxb1bKQRx4TYKnbhwO4VuXLiDwkZceDIFo6pSuJPC3VIwPN6TWP57ZQ+xU/dd6Q7z3bJ+3dKm+D0yjX7Pyeo+/IA1Y0x69SM/UPP0IBqU5WfN5kOU5suw5khqHa8QF0UcmAdxYLJVPnBcl+TTsdsClwOohKvqE85bQ8JVR4/+ubJ46y33azTluT9OoNI/TkBBVwh6irM4j5zDDBbLYj0u8TcNKHnlS/46jsihtZDK/MCkk/4deG0yApEaAF4R85r8xi09lRTmTiUR9e65MG7fkXPJcOzyBaKEBrE4nfYdoRVdmOtBnDzjbsrft0gOWKgfs09Gx+6UVzVTmrM18eO5/EW08CRnQu4D+LcHpsf340HOoZmfNaaz+mFm9aJ6n0qm1uvHQIbp6H0Qeut9IkGZX0nG6LEm7GTr5Yt3F7XIMPARGPCJ9hj31oUgw7hMA7mh+AQ40bi/F+1wy6A+zvnBTzAcGIrbEsWyyGm1EKAuMukns1X0Y2T1KWQ16tvf06Z0O1KVPRzjaQd4pn7H2EjdxYiQeklYOxfcE1j7m8fEd3rFljgehWbDPA5i1igtyJYdFDd88otFqV8KrJK2OICEHGb6yFpmG+oEF0BQ0pF55W2K2p/7zB5zy6bvU4EXYLyB+LPPlqCVZ54w2Uje7p9Seua+U2FK3HbZUgPJMXwJxMPAp4nPlh8iXgY1GyCRiR5jDiQm47HEM5HEpo1FbaqcieVVJdAisbiHDjzm40NOddDkKG/zci8kvz6H1fSHThQ486OMtpjBea9GcBKKk2PhhtQL10X5AwG6MMNBR4fH0h3TTFBb1upu/wJJfhCa351uGAVfVoVLU7HV2nOkDkyR69gE2x1Fkx/u7BG05F5tuGcuEO+P39vkhlwqEORm1NiHcLYlj3MKBxd1xUVnXi8k1FfFBJpfi4ZxB4xdTtZYVW+7vzscyfmZKYQL7swIGWZoAvlCXhf2I3NolsPMlv29O2y4PgyFtiWuvcloYCHQlBcJScGON5BessgGQLXgxnmLalsaGMFU12LbABtSoE0klbYuUl9heZuGMSDGVl9m+RpU9c8xjlkO8SajNDeo3B3JdbCJd6YoUOEmSz43aeSlI4YuKNx22LaR+hpBQhGOaYSaR1s73AZtJDJmg2ME6p/oeuo4+ypBgtCS/zpr5v8D+QQAAH2Ve2xURRTGz91Xbbul2AfQ9xZKa6QKUlLU7t2dGwyt0rVNoZoahJaylpclgRZSIPQhUgiCETRQtEn5QyQiYAQia/fuLkQjhi1CgQgRTW2aSiAVS5REIKnfmWXxmhi/5HR+3507c8/MnNkqionMZP9o3/EvrQmdRKFOhU6Pm71svXfW0plzPesWrGtqKX21uGzVnDeKKVlJOWkNxqZSBmVRrqIcscWb8Mdujg60KGRBkIksivWF1fXNb3obm8imPNZKRLFk5waSzXjSTbTVjLdJIZkF5ZLFZK2sa/A6nvm/QcmMicp6DMTHeaSCkTbrK976ptVrMDKGHo6N33I57NwyMLY4Mkln+fTTcp7OitrTCZHJUiidn2Qp2ZRD+YpCpo39Fy9uWrF8+aY7o6PcZeY/WI9CBZRpSWuHm2oppBl4teNqONzRPzZGPQonM/B1rInTocm8kBcbm7xrGutWOSoaV7U45tQ1rqtbS7ZoapGM/nNZu5CFTWlLmArPgbmlFjoGRPj7DCeQelL3uTxPzxEEnc0Iqau9CwQ91O+zagU91PYs0tBIvf98meTxE3vUzUdfkryldIer8tjLkrOrV4o7fzRIdtweEYdrWyX/+FetduuDCsllv3i1+yOReQovezVnw0JB0J++Wu1qrRAE7Zk0TdOW6G4gdeTeEE9VVJcAqeLYBG3BmScFQbb257SB7pWCoGcPDIsrd08IgpYdnymiz7fHDIuQ8oOcpyupXcyeGxIEbesOi5ueQUEQc2bCEzKf4pvnhEKLJS8JbBbFtz2SD2Wdd5+66HzE9n6r5Mrsfvfe0W5B0L6fyrXoc2bbN5H3D7sKNLM/Ms+9U6QVDS+SnH51THTkR77bkkTaroZBQdCZifnab0mRPIfeKteWBiLzs0baiwN3pglVATfnhNTS6j06kNifnL9WnzFdqCZwoq9GfXA/LPvYR4XC+peM3oIwyuitCKOM3oYwiv0KT5F649pnagz42oatuutGjcyF/e6jXapv51b1MXD9hrjQz6aWIJDYf+hYIpLrzrljwYVlewIlSp8KRLETLfpquauqoEePA1+faw50tx2Ufex9O20ufE+PBx9oKNKP3Mt0AYn97HShVhU4AnYw+tT0Hfmyjz36dN/O/EACGHO6PIEuOSf7+tYa3fKrXR8Hfm9kyN181uMGEvv6E87Q9vxPg4lg71Ch61JvmrxT7EurL2FMXy+QOq/bVYs/zQ/EDSV6d2i/+1BVvPtxcF+43Bm4Wy772O/vStMTfWlqEtgTqFE/d3jkHOwLy4p0+JJk8IXjNerU14tknuyxn/7mnDZ/Crjz+jt6XzhcAsTPEtdImxPjevnbtwb3B7/LsQeBlIqIagLCKKOfiDAq6mPOj7onoUX+TjRS7Hcfjaw1DTE4dNBt8qe6gdJHlY4wyugzEEZFfZ4vLpSJlteK9fUCif2mOLm+El5P1eaDwdd6U4NA/G/5R9kIo4w+B2EU+ytffBycdzPF7SD8br097Gw2pfuB5CB5LtjfcmcumPOofFApCGIf1WSEUUY/BWEU+2/nfeLeuG1CMA+ct7fVz+sBEnv+FppH65l/YTSooLUg+ExZ7E0IM4Kf893kO8h3je8U3x2+I3wXuOa5trmGuVb5XZ6H64/rjOuJ64bH8Z5yLfCZ89nyGfJZZSAyEfwO58X7yfvmoMg+TEZMQeQh6G8=(/figma)--&gt;&quot;&gt;&lt;/span&gt;&lt;span style=&quot;&quot;&gt;&lt;/span&gt;" style="rounded=1;whiteSpace=wrap;html=1;strokeColor=#0070F2;strokeWidth=1.5;arcSize=16;fillColor=#FFFFFF;perimeterSpacing=0;absoluteArcSize=1;" parent="WXxtYBOuJOK_NInGcJ7v-1" vertex="1">
          <mxGeometry x="-2166.5" y="-1410" width="308" height="237" as="geometry" />
        </mxCell>
        <mxCell id="WXxtYBOuJOK_NInGcJ7v-6" value="" style="rounded=1;whiteSpace=wrap;html=1;strokeColor=#0070F2;strokeWidth=1.5;arcSize=16;fillColor=#FFFFFF;perimeterSpacing=0;absoluteArcSize=1;" parent="WXxtYBOuJOK_NInGcJ7v-1" vertex="1">
          <mxGeometry x="-1355" y="-1539.12" width="153" height="153.12" as="geometry" />
        </mxCell>
        <mxCell id="WXxtYBOuJOK_NInGcJ7v-7" value="&lt;p style=&quot;line-height: 110%;&quot;&gt;&lt;font face=&quot;arial&quot; style=&quot;font-size: 11px;&quot;&gt;&lt;b style=&quot;&quot;&gt;SAP On-Premise Solutions&lt;/b&gt;&lt;/font&gt;&lt;/p&gt;" style="text;html=1;align=left;verticalAlign=middle;resizable=0;points=[];autosize=1;strokeColor=none;fillColor=none;fontSize=12;fontColor=#1d2d3e;fontFamily=Helvetica;" parent="WXxtYBOuJOK_NInGcJ7v-1" vertex="1">
          <mxGeometry x="-1345.93" y="-1506.9999999999998" width="160" height="50" as="geometry" />
        </mxCell>
        <mxCell id="WXxtYBOuJOK_NInGcJ7v-8" value="" style="shape=image;verticalLabelPosition=bottom;labelBackgroundColor=default;verticalAlign=top;aspect=fixed;imageAspect=0;image=data:image/svg+xml,PHN2ZyB4bWxucz0iaHR0cDovL3d3dy53My5vcmcvMjAwMC9zdmciIGZpbGw9Im5vbmUiIHZpZXdCb3g9IjAgMCAxNiAxNyIgaGVpZ2h0PSIxNyIgd2lkdGg9IjE2Ij4mI3hhOzxwYXRoIGZpbGw9InVybCgjcGFpbnQwX2xpbmVhcl83MjRfMTIpIiBkPSJNMTQuMzMzNSA1LjgzNDk0QzE0LjU4MzUgNi4wODQ5NCAxNC43ODE0IDYuMzc2NjEgMTQuOTI3MiA2LjcwOTk0QzE1LjA5MzkgNy4wMjI0NCAxNS4xNzcyIDcuMzY2MTkgMTUuMTc3MiA3Ljc0MTE5VjE0LjQyODdDMTUuMTc3MiAxNS4xMzcgMTQuOTM3NiAxNS43MjA0IDE0LjQ1ODUgMTYuMTc4N0MxMy45NzkzIDE2LjY1NzkgMTMuMzg1NSAxNi44OTc1IDEyLjY3NzIgMTYuODk3NUgyLjc3MDk0QzIuMDgzNDQgMTYuODk3NSAxLjUwMDExIDE2LjY1NzkgMS4wMjA5NCAxNi4xNzg3QzAuNTQxNzY4IDE1LjcyMDQgMC4zMDIxODUgMTUuMTM3IDAuMzAyMTg1IDE0LjQyODdWNy43NDExOUMwLjMwMjE4NSA2Ljk0OTUyIDAuNTgzNDM1IDYuMzE0MTEgMS4xNDU5NCA1LjgzNDk0TDYuMDgzNDQgMS41NTM2OUM2LjU4MzQ0IDEuMTM3MDIgNy4xNDU5NCAwLjkyODY4OCA3Ljc3MDk0IDAuOTI4Njg4QzguMzk1OTQgMC45Mjg2ODggOC45Mzc2MSAxLjEzNzAyIDkuMzk1OTQgMS41NTM2OUwxNC4zMzM1IDUuODM0OTRaTTguOTg5NjkgMTAuMzAzN0g2LjQ4OTY5VjE1LjI3MjVIOC45ODk2OVYxMC4zMDM3Wk0xMy40MjcyIDcuNzQxMTlDMTMuNDI3MiA3LjQ3MDM2IDEzLjM0MzkgNy4yNTE2MSAxMy4xNzcyIDcuMDg0OTRMOC4yMzk2OSAyLjgwMzY5QzcuODg1NTIgMi41MzI4NiA3LjUyMDk0IDIuNTMyODYgNy4xNDU5NCAyLjgwMzY5TDIuMjA4NDQgNy4wODQ5NEMyLjA0MTc3IDcuMjUxNjEgMS45NTg0NCA3LjQ3MDM2IDEuOTU4NDQgNy43NDExOVYxNC40Mjg3QzEuOTU4NDQgMTQuNjc4NyAyLjAzMTM2IDE0Ljg4NyAyLjE3NzE5IDE1LjA1MzdDMi4zNDM4NiAxNS4xOTk1IDIuNTQxNzcgMTUuMjcyNSAyLjc3MDk0IDE1LjI3MjVINC44MzM0NFYxMC4zMDM3QzQuODMzNDQgOS44NDUzNiA0Ljk4OTY5IDkuNDU5OTQgNS4zMDIxOSA5LjE0NzQ0QzUuNjM1NTIgOC44MTQxMSA2LjAzMTM2IDguNjQ3NDQgNi40ODk2OSA4LjY0NzQ0SDguOTg5NjlDOS40NDgwMiA4LjY0NzQ0IDkuODMzNDkgOC44MTQxMSAxMC4xNDU5IDkuMTQ3NDRDMTAuNDU4NSA5LjQ1OTk0IDEwLjYxNDcgOS44NDUzNiAxMC42MTQ3IDEwLjMwMzdWMTUuMjcyNUgxMi42NzcyQzEyLjkyNzIgMTUuMjcyNSAxMy4xMjUxIDE1LjE5OTUgMTMuMjcwOSAxNS4wNTM3QzEzLjQzNzYgMTQuODg3IDEzLjUyMDkgMTQuNjc4NyAxMy41MjA5IDE0LjQyODdMMTMuNDI3MiA3Ljc0MTE5WiIvPiYjeGE7PGRlZnM+JiN4YTs8bGluZWFyR3JhZGllbnQgZ3JhZGllbnRVbml0cz0idXNlclNwYWNlT25Vc2UiIHkyPSI5Ljg1NDkiIHgyPSIxNS44MTkzIiB5MT0iMi40MzA4NCIgeDE9IjIuMjI0NjQiIGlkPSJwYWludDBfbGluZWFyXzcyNF8xMiI+JiN4YTs8c3RvcCBzdG9wLWNvbG9yPSIjMjM5NUZGIi8+JiN4YTs8c3RvcCBzdG9wLWNvbG9yPSIjMDA1N0QyIiBvZmZzZXQ9IjEiLz4mI3hhOzwvbGluZWFyR3JhZGllbnQ+JiN4YTs8L2RlZnM+JiN4YTs8L3N2Zz4=;strokeWidth=1.5;" parent="WXxtYBOuJOK_NInGcJ7v-1" vertex="1">
          <mxGeometry x="-1344.1100000000001" y="-1531.4999999999998" width="26.36" height="28" as="geometry" />
        </mxCell>
        <mxCell id="WXxtYBOuJOK_NInGcJ7v-9" value="&lt;font style=&quot;font-size: 14px;&quot; face=&quot;arial&quot; color=&quot;#5b738b&quot;&gt;&lt;b style=&quot;font-size: 14px;&quot;&gt;NETWORK&lt;/b&gt;&lt;/font&gt;" style="text;html=1;align=center;verticalAlign=middle;resizable=0;points=[];autosize=1;strokeColor=none;fillColor=none;fontSize=14;fontColor=default;fontFamily=Helvetica;" parent="WXxtYBOuJOK_NInGcJ7v-1" vertex="1">
          <mxGeometry x="-1372.0000000000005" y="-1588.7499999999995" width="90" height="29" as="geometry" />
        </mxCell>
        <mxCell id="WXxtYBOuJOK_NInGcJ7v-10" value="&lt;span style=&quot;font-family: Helvetica; font-style: normal; font-variant-ligatures: normal; font-variant-caps: normal; font-weight: 700; letter-spacing: normal; orphans: 2; text-indent: 0px; text-transform: none; widows: 2; word-spacing: 0px; -webkit-text-stroke-width: 0px; text-decoration-thickness: initial; text-decoration-style: initial; text-decoration-color: initial; float: none; font-size: 10px; display: inline !important;&quot;&gt;&lt;font style=&quot;font-size: 10px;&quot;&gt;SAP S/4HANA&lt;/font&gt;&lt;/span&gt;" style="text;whiteSpace=wrap;html=1;align=left;container=0;verticalAlign=middle;fontColor=#1D2D3E;fontSize=10;" parent="WXxtYBOuJOK_NInGcJ7v-1" vertex="1">
          <mxGeometry x="-1345.93" y="-1467.13" width="74.25" height="22" as="geometry" />
        </mxCell>
        <mxCell id="WXxtYBOuJOK_NInGcJ7v-12" value="" style="shape=image;verticalLabelPosition=bottom;labelBackgroundColor=default;verticalAlign=top;aspect=fixed;imageAspect=0;image=data:image/svg+xml,PHN2ZyB4bWxuczp4bGluaz0iaHR0cDovL3d3dy53My5vcmcvMTk5OS94bGluayIgeG1sbnM9Imh0dHA6Ly93d3cudzMub3JnLzIwMDAvc3ZnIiB2aWV3Qm94PSIwIDAgMTQ0Ljc0NyAzOS44MzIiIGlkPSJhIj48ZGVmcz48bGluZWFyR3JhZGllbnQgZ3JhZGllbnRVbml0cz0idXNlclNwYWNlT25Vc2UiIHkyPSIzOS44MzIiIHgyPSI0MC4yNTgiIHkxPSIwIiB4MT0iNDAuMjU4IiBpZD0iYiI+PHN0b3Agc3RvcC1jb2xvcj0iIzAwYjhmMSIgb2Zmc2V0PSIwIi8+PHN0b3Agc3RvcC1jb2xvcj0iIzAwYjVlZiIgb2Zmc2V0PSIuMDE2Ii8+PHN0b3Agc3RvcC1jb2xvcj0iIzBkOTBkOCIgb2Zmc2V0PSIuMzA4Ii8+PHN0b3Agc3RvcC1jb2xvcj0iIzE2NzVjOCIgb2Zmc2V0PSIuNTc4Ii8+PHN0b3Agc3RvcC1jb2xvcj0iIzFjNjRiZSIgb2Zmc2V0PSIuODE3Ii8+PHN0b3Agc3RvcC1jb2xvcj0iIzFlNWZiYiIgb2Zmc2V0PSIxIi8+PC9saW5lYXJHcmFkaWVudD48L2RlZnM+PHBvbHlsaW5lIGZpbGwtcnVsZT0iZXZlbm9kZCIgZmlsbD0idXJsKCNiKSIgcG9pbnRzPSIwIDM5LjgzMiA0MC42OTIgMzkuODMyIDgwLjUxNyAwIDAgMCAwIDM5LjgzMiIvPjxwYXRoIGZpbGwtcnVsZT0iZXZlbm9kZCIgZmlsbD0iI2ZmZiIgZD0ibTQ3Ljc4Miw3LjQ4OWwtNy45MjUtLjAwNXYxOC44NDVsLTYuOTI0LTE4Ljg0NWgtNi44NjVsLTUuOTEyLDE1Ljc1OWMtLjYzLTMuOTczLTQuNzQtNS4zNDUtNy45NzQtNi4zNzQtMi4xMzUtLjY4Ni00LjQwMS0xLjY5NC00LjM4LTIuODA5LjAxNy0uOTE1LDEuMjE1LTEuNzY1LDMuNTg5LTEuNjM3LDEuNTk1LjA4NCwzLjAwMS4yMTMsNS44LDEuNTYzbDIuNzUzLTQuNzk1Yy0yLjU1NS0xLjMtNi4wODYtMi4xMjEtOC45NzgtMi4xMjRoLS4wMTdjLTMuMzc0LDAtNi4xODUsMS4wOTMtNy45MjgsMi44OTQtMS4yMTQsMS4yNTgtMS44NjksMi44NTYtMS44OTYsNC42MjMtLjA0NCwyLjQzMi44NDgsNC4xNTcsMi43MjEsNS41MzMsMS41ODMsMS4xNiwzLjYwNiwxLjkxMiw1LjM5LDIuNDY1LDIuMjAxLjY4MSwzLjk5NiwxLjI3NCwzLjk3NSwyLjUzOS0uMDE2LjQ1OS0uMTkxLjg4OC0uNTIxLDEuMjM2LS41NDguNTY2LTEuMzkxLjc3OS0yLjU1NS43OTktMi4yNDQuMDQ4LTMuOTEtLjMwMy02LjU2Mi0xLjg3bC0yLjQ0OCw0Ljg2MWMyLjY0NCwxLjUwNiw1Ljc3NiwyLjM4OCw4Ljk3MiwyLjM4OGwuNDExLS4wMDZjMi43ODItLjA1LDUuMDI2LS44NDIsNi44Mi0yLjI4Ni4xMDMtLjA4MS4xOTYtLjE2Ni4yOTEtLjI1bC0uNzk1LDIuMTIzaDcuMmwxLjIwOC0zLjY3NGMxLjI2NS40MzMsMi43MDQuNjcxLDQuMjMyLjY3MSwxLjQ4NywwLDIuODg5LS4yMjksNC4xMzEtLjYzNWwxLjE2NCwzLjYzN2gxMS43NDJ2LTcuNjA3aDIuNTYxYzYuMTg4LDAsOS44NTEtMy4xNTQsOS44NTEtOC40MzYsMC01Ljg4NS0zLjU1Ny04LjU4NS0xMS4xMzItOC41ODVabS0xOC4zMTcsMTYuMTI0Yy0uOTI1LDAtMS43OTItLjE2LTIuNTM5LS40NDNsMi41MTItNy45MjZoLjA0OGwyLjQ2OCw3Ljk0OGMtLjc0Mi4yNjMtMS41ODkuNDIxLTIuNDg4LjQyMVptMTguNzgzLTQuNTUzaC0xLjc0NnYtNi4zODZoMS43NDZjMi4zMjgsMCw0LjE4NS43NzMsNC4xODUsMy4xNTEsMCwyLjQ2MS0xLjg1NywzLjIzNi00LjE4NSwzLjIzNiIvPjxwYXRoIGZpbGw9IiMwMDJhODYiIGQ9Im04MC4yMTcsNy40MDFoMTAuMDYzYzUuNTk1LDAsOC42NzQsMS45MTcsOC42NzQsNi4xNTgsMCwyLjkwMy0xLjUxMyw1LjAxNC00LjMxMSw1LjcsMy4yOS40NTgsNS4yNzgsMi41ODYsNS4yNzgsNS44OTQsMCw1LjAxNC00LjA2NCw3LjAzNy05LjE4NCw3LjAzN2gtMTAuNTIxVjcuNDAxWm0xMy45NjksNi44MjZjMC0yLjE2NC0xLjQ5Ni0yLjk3My00LjI0LTIuOTczaC01LjA0OXY2LjI5OGg0Ljg5MWMzLjIwMiwwLDQuMzk4LTEuMTYxLDQuMzk4LTMuMzI1Wm0xLjAyMSwxMC41MjFjMC0yLjM1Ny0xLjc3Ny0zLjQ2Ni00LjgzOS0zLjQ2NmgtNS40NzF2Ny4wNTVoNS41MDZjMi44MTUsMCw0LjgwNC0uNzc0LDQuODA0LTMuNTg5WiIvPjxwYXRoIGZpbGw9IiMwMDJhODYiIGQ9Im0xMDkuMDUxLDExLjVoLTcuNTgzdi00LjA5OWgxOS44NDZ2NC4wOTloLTcuNTY1djIwLjY5aC00LjY5N1YxMS41WiIvPjxwYXRoIGZpbGw9IiMwMDJhODYiIGQ9Im0xMjUuMTQ4LDcuNDAxaDEwLjUwNGM2LjE5MiwwLDkuMDk2LDMuMTg1LDkuMDk2LDcuODk5LDAsNC4zOTgtMi44MzMsOC4xNDYtOC44NSw4LjE0NmgtNi4wN3Y4Ljc0NGgtNC42OFY3LjQwMVptMTQuOTAyLDcuOTUyYzAtMi41NTEtMS42ODktMy45MjMtNC45NDQtMy45MjNoLTUuMjc4djguMDRoNS40MTljMy4yNzIsMCw0LjgwNC0xLjU4Myw0LjgwNC00LjExN1oiLz48L3N2Zz4=;strokeWidth=1.5;" parent="WXxtYBOuJOK_NInGcJ7v-1" vertex="1">
          <mxGeometry x="-2198.95" y="-1571" width="67.25" height="18.55" as="geometry" />
        </mxCell>
        <mxCell id="WXxtYBOuJOK_NInGcJ7v-13" value="&lt;font size=&quot;1&quot; face=&quot;arial&quot; style=&quot;&quot;&gt;&lt;span style=&quot;font-size: 12px;&quot;&gt;Multi-Cloud&lt;/span&gt;&lt;/font&gt;" style="text;html=1;align=left;verticalAlign=middle;resizable=0;points=[];autosize=1;strokeColor=none;fillColor=none;fontSize=14;fontColor=#1D2D3E;fontFamily=Helvetica;fontStyle=0" parent="WXxtYBOuJOK_NInGcJ7v-1" vertex="1">
          <mxGeometry x="-2183.5" y="-1510" width="79" height="29" as="geometry" />
        </mxCell>
        <mxCell id="WXxtYBOuJOK_NInGcJ7v-14" value="&lt;font face=&quot;arial&quot; style=&quot;font-size: 16px;&quot;&gt;&lt;b style=&quot;font-size: 16px;&quot;&gt;Subaccount&lt;/b&gt;&lt;/font&gt;" style="text;html=1;align=left;verticalAlign=middle;resizable=0;points=[];autosize=1;strokeColor=none;fillColor=none;fontSize=12;fontColor=#1d2d3e;fontFamily=Helvetica;" parent="WXxtYBOuJOK_NInGcJ7v-1" vertex="1">
          <mxGeometry x="-2183.5" y="-1527" width="120" height="30" as="geometry" />
        </mxCell>
        <mxCell id="WXxtYBOuJOK_NInGcJ7v-18" value="" style="endArrow=blockThin;html=1;strokeColor=#475E75;bendable=1;rounded=0;endFill=1;endSize=4;strokeWidth=1.5;startSize=4;exitX=0.495;exitY=1.098;exitDx=0;exitDy=0;exitPerimeter=0;entryX=0.5;entryY=0;entryDx=0;entryDy=0;entryPerimeter=0;" parent="WXxtYBOuJOK_NInGcJ7v-1" source="WXxtYBOuJOK_NInGcJ7v-88" target="WXxtYBOuJOK_NInGcJ7v-37" edge="1">
          <mxGeometry width="50" height="50" relative="1" as="geometry">

        <mxCell id="waFAcAif9-SCXidHDo0n-7" value="" style="shape=image;verticalLabelPosition=bottom;labelBackgroundColor=default;verticalAlign=top;aspect=fixed;imageAspect=0;image=data:image/svg+xml,PHN2ZyB4bWxucz0iaHR0cDovL3d3dy53My5vcmcvMjAwMC9zdmciIGZpbGw9Im5vbmUiIHZpZXdCb3g9IjAgMCAxNiAxNiIgaGVpZ2h0PSIxNiIgd2lkdGg9IjE2Ij4mI3hhOzxwYXRoIGZpbGw9IiMxRDJEM0UiIGQ9Ik0xMi41NTEyIDUuMjQyMzJDMTAuODU3MiA0Ljk1MzA0IDEwLjMxNTEgMy42MDQ3MiAxMC4xMzYgMi43NjE0MUMxMC4xMTY2IDIuNjc4MDYgMTAuMDEwMSAyLjY4Mjk3IDkuOTk1NjIgMi43NjYzMkM5LjcxMDA2IDQuNDgyMzYgOC4zNzkwMyA1LjAzMTQ5IDcuNTQ2NTMgNS4yMTI5QzcuNDY0MjUgNS4yMzI1MSA3LjQ2OTA5IDUuMzQwMzggNy41NTEzNyA1LjM1NTA5QzkuMjQ1NDEgNS42NDQzNiA5Ljc4NzUgNi45OTI2OCA5Ljk2NjU4IDcuODM1OTlDOS45ODU5NCA3LjkxOTM0IDEwLjA5MjQgNy45MTQ0NCAxMC4xMDY5IDcuODMxMDlDMTAuMzkyNSA2LjExNTA1IDExLjcyMzUgNS41NjU5MSAxMi41NTYgNS4zODQ1QzEyLjYzODMgNS4zNjQ4OSAxMi42MzM1IDUuMjU3MDMgMTIuNTUxMiA1LjI0MjMyWiIvPiYjeGE7PHBhdGggZmlsbD0iIzFEMkQzRSIgZD0iTTQuNDEwMjYgMEM0LjE2MzA3IDAgMy45MjkwNiAwLjExMjg4NCAzLjc3MzI1IDAuMzA3Mjc4TDAuMTgzNTExIDQuNzg2MThDLTAuMDUyMjA1NyA1LjA4MDI4IC0wLjA2MTc4MjUgNS40OTg2NCAwLjE2MDIyMyA1LjgwMzQ5TDcuMzM5NzEgMTUuNjYyMkM3LjQ5NDM4IDE1Ljg3NDYgNy43Mzk0NSAxNiA4IDE2QzguMjYwNTUgMTYgOC41MDU2MiAxNS44NzQ2IDguNjYwMjkgMTUuNjYyMkwxNS44Mzk4IDUuODAzNDlDMTYuMDYxOCA1LjQ5ODY0IDE2LjA1MjIgNS4wODAyOCAxNS44MTY1IDQuNzg2MThMMTIuMjI2NyAwLjMwNzI3OEMxMi4wNzA5IDAuMTEyODg0IDExLjgzNjkgMCAxMS41ODk3IDBINC40MTAyNlpNMS44NTc4NyA1LjMzNDQ0TDQuODAwOTggMS42NjIzNEgxMS4xOTlMMTQuMTQyMSA1LjMzNDQ0TDggMTMuNzY4N0wxLjg1Nzg3IDUuMzM0NDRaIiBjbGlwLXJ1bGU9ImV2ZW5vZGQiIGZpbGwtcnVsZT0iZXZlbm9kZCIvPiYjeGE7PC9zdmc+;" vertex="1" parent="WXxtYBOuJOK_NInGcJ7v-79">
          <mxGeometry x="146.07999999999993" y="167.87999999999988" width="16" height="16" as="geometry" />
        </mxCell>
        <mxCell id="WXxtYBOuJOK_NInGcJ7v-84" value="" style="endArrow=blockThin;html=1;strokeColor=#475E75;bendable=1;rounded=0;endFill=1;endSize=4;strokeWidth=1.5;startSize=4;startArrow=none;startFill=0;exitX=1;exitY=0.5;exitDx=0;exitDy=0;entryX=-0.008;entryY=0.91;entryDx=0;entryDy=0;entryPerimeter=0;" parent="WXxtYBOuJOK_NInGcJ7v-1" source="WXxtYBOuJOK_NInGcJ7v-25" target="WXxtYBOuJOK_NInGcJ7v-6" edge="1">
          <mxGeometry width="50" height="50" relative="1" as="geometry">
            <mxPoint x="-1448" y="-1346.1599999999999" as="sourcePoint" />
            <mxPoint x="-1356" y="-1364" as="targetPoint" />


        </mxCell>
      </root>
    </mxGraphModel>
  </diagram>
</mxfile>
